<svg width="2738" height="530" viewBox="0 0 2738 530" fill="none" xmlns="http://www.w3.org/2000/svg">
<path d="M2635.61 460.633C2635.61 472.091 2637.76 480.229 2642.05 485.047C2646.48 489.995 2653.12 492.469 2661.98 492.469C2666.92 492.469 2671.48 491.362 2675.65 489.148C2679.95 487.065 2683.4 483.159 2686 477.43C2688.6 471.701 2689.91 463.367 2689.91 452.43V410.047C2685.48 415.646 2679.82 420.529 2672.91 424.695C2666.01 428.862 2657.35 430.945 2646.94 430.945C2642.38 430.945 2636.85 430.099 2630.34 428.406C2623.96 426.714 2617.58 422.807 2611.2 416.688C2604.95 410.438 2599.67 400.737 2595.38 387.586C2591.21 374.435 2589.12 356.466 2589.12 333.68V262.977C2589.12 241.102 2591.21 223.914 2595.38 211.414C2599.67 198.914 2604.95 189.734 2611.2 183.875C2617.58 178.016 2624.09 174.305 2630.73 172.742C2637.5 171.18 2643.29 170.398 2648.11 170.398C2661.26 170.398 2671.35 173.523 2678.38 179.773C2685.54 185.893 2690.95 192.534 2694.59 199.695L2699.09 173.133H2737.56V431.336C2737.56 461.284 2731.64 485.047 2719.79 502.625C2707.94 520.333 2688.86 529.188 2662.56 529.188C2650.71 529.188 2639.91 527.69 2630.14 524.695C2620.38 521.831 2612.56 516.557 2606.7 508.875C2600.97 501.193 2598.11 490.32 2598.11 476.258C2598.11 471.831 2598.96 466.622 2600.65 460.633H2635.61ZM2663.73 390.711C2670.24 390.711 2675.45 388.693 2679.36 384.656C2683.27 380.62 2686.26 376.128 2688.34 371.18V230.164C2685.87 224.826 2682.55 220.203 2678.38 216.297C2674.35 212.391 2669.4 210.438 2663.54 210.438C2658.72 210.438 2654.42 211.74 2650.65 214.344C2647 216.818 2644.07 221.57 2641.86 228.602C2639.78 235.503 2638.73 245.659 2638.73 259.07V341.492C2638.73 354.773 2639.78 364.995 2641.86 372.156C2644.07 379.188 2647.07 384.07 2650.84 386.805C2654.62 389.409 2658.92 390.711 2663.73 390.711Z" fill="#4A6B88"/>
<path d="M2413.34 494.031C2428.32 496.115 2440.56 492.99 2450.06 484.656C2459.57 476.453 2464.71 462.846 2465.49 443.836L2401.82 173.328H2451.04L2479.36 322.156L2487.56 373.523H2489.12L2494.79 322.156L2517.64 173.328H2565.3L2510.02 452.234C2504.95 478.016 2497.13 497.286 2486.59 510.047C2476.04 522.807 2460.28 529.188 2439.32 529.188C2430.86 529.188 2422.2 527.56 2413.34 524.305V494.031Z" fill="#4A6B88"/>
<path d="M2296.94 210.828H2274.09V173.328H2301.23L2311.2 103.602H2346.35V173.328H2391.27V210.828H2346.35V375.672C2346.35 387.391 2348.43 394.812 2352.6 397.938C2356.9 401.062 2361.91 402.625 2367.64 402.625C2376.76 402.625 2384.57 400.607 2391.08 396.57V427.82C2385.48 434.721 2378.97 439.409 2371.55 441.883C2364.12 444.227 2356.96 445.398 2350.06 445.398C2340.95 445.398 2332.29 443.641 2324.09 440.125C2316.01 436.479 2309.44 429.643 2304.36 419.617C2299.41 409.461 2296.94 394.682 2296.94 375.281V210.828Z" fill="#4A6B88"/>
<path d="M2107.48 87H2156.9V291.492H2158.46L2212.37 173.328H2259.83L2202.21 294.031L2265.49 442.273H2215.49L2158.46 308.875H2156.9V442.273H2107.48V87Z" fill="#4A6B88"/>
<path d="M1958.66 173.328H1994.79L1999.09 200.672C2004.42 190.516 2010.67 182.898 2017.84 177.82C2025 172.742 2032.29 170.203 2039.71 170.203C2067.45 170.203 2081.31 187.651 2081.31 222.547C2081.31 226.974 2080.66 232.833 2079.36 240.125C2078.06 247.286 2076.49 253.602 2074.67 259.07H2040.3V238.172C2040.3 227.365 2038.67 220.073 2035.41 216.297C2032.16 212.391 2028.12 210.438 2023.3 210.438C2017.18 210.438 2012.11 215.255 2008.07 224.891V442.273H1958.66V173.328Z" fill="#4A6B88"/>
<path d="M1773.5 332.117V281.336C1773.5 260.763 1775.26 243.706 1778.77 230.164C1782.29 216.622 1786.91 205.815 1792.64 197.742C1798.5 189.669 1804.88 183.68 1811.78 179.773C1818.81 175.867 1825.78 173.328 1832.68 172.156C1839.58 170.854 1845.9 170.203 1851.62 170.203C1863.47 170.203 1874.41 172.742 1884.44 177.82C1894.46 182.768 1902.47 191.362 1908.46 203.602C1914.58 215.711 1917.64 232.573 1917.64 254.188C1917.64 264.995 1917.05 276.062 1915.88 287.391C1914.71 298.589 1913.15 308.484 1911.2 317.078H1823.11V344.422C1823.11 367.859 1825.06 384.396 1828.97 394.031C1833.01 403.667 1840.62 408.484 1851.82 408.484C1857.94 408.484 1863.47 405.88 1868.42 400.672C1873.37 395.333 1875.84 385.568 1875.84 371.375V359.656H1916.47V371.961C1916.47 397.482 1910.35 416.102 1898.11 427.82C1886 439.409 1868.42 445.203 1845.38 445.203C1822.2 445.203 1804.42 436.349 1792.05 418.641C1779.68 400.932 1773.5 372.091 1773.5 332.117ZM1871.55 283.875C1871.81 281.01 1872 276.714 1872.13 270.984C1872.26 265.125 1872.33 260.438 1872.33 256.922C1872.33 239.083 1870.44 226.323 1866.66 218.641C1862.89 210.958 1856.9 207.052 1848.7 206.922C1839.97 206.922 1833.53 211.349 1829.36 220.203C1825.19 228.927 1823.11 244.878 1823.11 268.055V283.875H1871.55Z" fill="#4A6B88"/>
<path d="M1591.47 173.328H1640.69L1666.66 316.297L1673.11 373.523H1674.67L1682.09 316.297L1707.88 173.328H1755.53L1694.2 442.273H1652.02L1591.47 173.328Z" fill="#4A6B88"/>
<path d="M1484.83 210.828H1461.98V173.328H1489.12L1499.09 103.602H1534.24V173.328H1579.16V210.828H1534.24V375.672C1534.24 387.391 1536.33 394.812 1540.49 397.938C1544.79 401.062 1549.8 402.625 1555.53 402.625C1564.65 402.625 1572.46 400.607 1578.97 396.57V427.82C1573.37 434.721 1566.86 439.409 1559.44 441.883C1552.02 444.227 1544.85 445.398 1537.95 445.398C1528.84 445.398 1520.18 443.641 1511.98 440.125C1503.9 436.479 1497.33 429.643 1492.25 419.617C1487.3 409.461 1484.83 394.682 1484.83 375.281V210.828Z" fill="#4A6B88"/>
<path d="M1380.92 87H1430.34V442.273H1380.92V87Z" fill="#4A6B88"/>
<path d="M1182.88 173.328H1232.29V371.18C1232.29 383.029 1234.11 391.297 1237.76 395.984C1241.4 400.542 1246.74 402.82 1253.77 402.82C1264.19 402.82 1273.24 397.547 1280.92 387V173.328H1330.34V442.273H1292.64L1287.76 413.562H1287.56C1279.88 425.802 1271.16 434.201 1261.39 438.758C1251.76 443.185 1241.99 445.398 1232.09 445.398C1216.47 445.398 1204.36 439.93 1195.77 428.992C1187.17 417.924 1182.88 401.388 1182.88 379.383V173.328Z" fill="#4A6B88"/>
<path d="M1013.34 386.023C1013.34 380.164 1013.86 374.5 1014.91 369.031C1016.08 363.562 1017.18 359.201 1018.23 355.945H1052.99C1052.99 375.477 1055.4 389.148 1060.22 396.961C1065.17 404.643 1072.2 408.484 1081.31 408.484C1087.82 408.484 1092.9 406.531 1096.55 402.625C1100.19 398.589 1102.02 393.836 1102.02 388.367C1102.02 382.638 1100.45 377.104 1097.33 371.766C1094.33 366.427 1090.17 360.568 1084.83 354.188L1050.26 311.609C1040.88 299.76 1032.48 287.391 1025.06 274.5C1017.77 261.479 1014.12 247.156 1014.12 231.531C1014.12 217.599 1017.18 206.141 1023.3 197.156C1029.42 188.042 1037.5 181.271 1047.52 176.844C1057.55 172.417 1068.42 170.203 1080.14 170.203C1099.54 170.203 1115.04 174.891 1126.62 184.266C1138.21 193.51 1144.01 207.443 1144.01 226.062C1144.01 232.182 1143.42 238.237 1142.25 244.227C1141.21 250.086 1140.17 255.099 1139.12 259.266H1104.95C1104.68 241.557 1102.6 228.406 1098.7 219.812C1094.79 211.219 1088.34 206.922 1079.36 206.922C1071.81 206.922 1066.6 209.266 1063.73 213.953C1060.87 218.641 1059.44 223.849 1059.44 229.578C1059.44 235.828 1061 241.492 1064.12 246.57C1067.25 251.518 1071.29 257.117 1076.23 263.367L1115.3 310.633C1119.07 315.32 1123.43 321.31 1128.38 328.602C1133.33 335.763 1137.63 343.901 1141.27 353.016C1145.05 362 1146.94 371.766 1146.94 382.312C1146.94 401.193 1141.01 416.427 1129.16 428.016C1117.32 439.474 1100.39 445.203 1078.38 445.203C1066.4 445.203 1055.47 443.38 1045.57 439.734C1035.67 435.958 1027.8 429.773 1021.94 421.18C1016.21 412.456 1013.34 400.737 1013.34 386.023Z" fill="#4A6B88"/>
<path d="M829.359 173.328H867.055L871.938 202.039V202.234C879.62 189.865 888.344 181.466 898.109 177.039C907.875 172.482 917.706 170.203 927.602 170.203C943.227 170.203 955.336 175.737 963.93 186.805C972.523 197.872 976.82 214.344 976.82 236.219V442.273H927.406V242.078C927.406 230.229 925.583 222.026 921.938 217.469C918.292 212.781 912.953 210.438 905.922 210.438C900.974 210.438 896.156 212.065 891.469 215.32C886.781 218.576 882.549 223.068 878.773 228.797V442.273H829.359V173.328Z" fill="#4A6B88"/>
<path d="M711.977 445.203C703.383 445.203 694.724 443.966 686 441.492C677.276 438.888 669.203 433.68 661.781 425.867C654.49 418.055 648.63 406.271 644.203 390.516C639.776 374.63 637.562 353.406 637.562 326.844V284.656C637.562 258.484 639.841 237.781 644.398 222.547C648.956 207.182 654.945 195.789 662.367 188.367C669.789 180.815 677.862 175.932 686.586 173.719C695.31 171.375 703.839 170.203 712.172 170.203C720.245 170.203 728.578 171.31 737.172 173.523C745.766 175.607 753.708 180.359 761 187.781C768.292 195.073 774.216 206.466 778.773 221.961C783.331 237.326 785.609 258.224 785.609 284.656V326.844C785.609 353.016 783.266 373.979 778.578 389.734C773.891 405.359 767.836 417.208 760.414 425.281C752.992 433.224 744.984 438.562 736.391 441.297C727.927 443.901 719.789 445.203 711.977 445.203ZM712.367 408.484C721.221 408.484 727.341 403.602 730.727 393.836C734.242 384.07 736 366.622 736 341.492V274.5C736 249.24 734.242 231.661 730.727 221.766C727.341 211.87 721.221 206.922 712.367 206.922C703.122 206.922 696.612 211.87 692.836 221.766C689.06 231.661 687.172 249.24 687.172 274.5V341.492C687.172 366.622 689.06 384.07 692.836 393.836C696.612 403.602 703.122 408.484 712.367 408.484Z" fill="#4A6B88"/>
<path d="M461 108.68H511.586V254.383H513.148L570.961 108.68H621.352L557.094 265.125L628.578 442.273H574.477L513.148 283.484H511.586V442.273H461V108.68Z" fill="#4A6B88"/>
<g clip-path="url(#clip0_497_1724)">
<path d="M379.978 0H62.1953V442.167H379.978V0Z" fill="white"/>
<path d="M331.664 48.3594H110.57V131.267H331.664V48.3594Z" fill="#949B99"/>
<path d="M122.375 61.594H331.664V48.3594H110.57V131.267H122.375V61.594Z" fill="#8B8B8B"/>
<path d="M379.999 224.557V442.19H155.456L110.547 397.276L138.186 300.554L110.547 272.915L207.269 176.188L234.908 203.827L331.636 176.188L379.999 224.557Z" fill="#E3E1E1"/>
<path d="M207.298 300.537H110.57V397.27H207.298V300.537Z" fill="#619AC6"/>
<path d="M331.664 176.175H234.938V272.902H331.664V176.175Z" fill="#619AC6"/>
<path d="M207.298 176.175H110.57V272.902H207.298V176.175Z" fill="#619AC6"/>
<path d="M331.664 300.537H234.938V397.27H331.664V300.537Z" fill="#10200E"/>
<path d="M310.932 217.63H255.664V231.451H310.932V217.63Z" fill="white"/>
<path d="M186.579 217.63H165.855V196.906H152.029V217.63H131.305V231.449H152.029V252.179H165.855V231.449H186.579V217.63Z" fill="white"/>
<path d="M185.661 366.707L167.842 348.9L185.661 331.08L176.754 322.175L158.936 339.988L141.111 322.175L132.211 331.08L150.029 348.9L132.211 366.707L141.111 375.631L158.936 357.806L176.754 375.631L185.661 366.707Z" fill="white"/>
<path d="M310.932 324.722H255.664V338.542H310.932V324.722Z" fill="#D7D7D8"/>
<path d="M310.932 359.265H255.664V373.084H310.932V359.265Z" fill="#D7D7D8"/>
</g>
<defs>
<clipPath id="clip0_497_1724">
<rect width="442.19" height="442.19" fill="white"/>
</clipPath>
</defs>
</svg>
